<mxfile host="app.diagrams.net" agent="Mozilla/5.0 (Windows NT 10.0; Win64; x64) AppleWebKit/537.36 (KHTML, like Gecko) Chrome/130.0.0.0 Safari/537.36" version="24.8.4">
  <diagram name="第 1 页" id="-gfk3kSpmvORqFy1Gjfa">
    <mxGraphModel dx="2403" dy="1258" grid="1" gridSize="10" guides="1" tooltips="1" connect="1" arrows="1" fold="1" page="1" pageScale="1" pageWidth="1169" pageHeight="827" math="0" shadow="0">
      <root>
        <mxCell id="0" />
        <mxCell id="1" parent="0" />
        <mxCell id="ADpffEBBeubzTnQbu4G_-1" value="基于Java的&lt;span style=&quot;font-size: 18px; font-family: 等线;&quot;&gt;个人摄影作品管理网站的设计与实现&lt;/span&gt;" style="rounded=0;whiteSpace=wrap;html=1;fontSize=18;" vertex="1" parent="1">
          <mxGeometry x="365" y="52" width="440" height="60" as="geometry" />
        </mxCell>
        <mxCell id="ADpffEBBeubzTnQbu4G_-2" value="管理员" style="rounded=0;whiteSpace=wrap;html=1;fontSize=18;" vertex="1" parent="1">
          <mxGeometry x="160" y="270" width="120" height="60" as="geometry" />
        </mxCell>
        <mxCell id="ADpffEBBeubzTnQbu4G_-3" value="用户" style="rounded=0;whiteSpace=wrap;html=1;fontSize=17;" vertex="1" parent="1">
          <mxGeometry x="600" y="270" width="120" height="60" as="geometry" />
        </mxCell>
        <mxCell id="ADpffEBBeubzTnQbu4G_-4" value="访客" style="rounded=0;whiteSpace=wrap;html=1;fontSize=17;" vertex="1" parent="1">
          <mxGeometry x="920" y="270" width="120" height="60" as="geometry" />
        </mxCell>
        <mxCell id="ADpffEBBeubzTnQbu4G_-6" value="" style="line;strokeWidth=1;html=1;perimeter=backbonePerimeter;points=[];outlineConnect=0;" vertex="1" parent="1">
          <mxGeometry x="220" y="186" width="760" height="10" as="geometry" />
        </mxCell>
        <mxCell id="ADpffEBBeubzTnQbu4G_-7" value="" style="line;strokeWidth=1;direction=south;html=1;" vertex="1" parent="1">
          <mxGeometry x="215" y="191" width="10" height="79" as="geometry" />
        </mxCell>
        <mxCell id="ADpffEBBeubzTnQbu4G_-8" value="" style="line;strokeWidth=1;direction=south;html=1;" vertex="1" parent="1">
          <mxGeometry x="655" y="191" width="10" height="79" as="geometry" />
        </mxCell>
        <mxCell id="ADpffEBBeubzTnQbu4G_-9" value="" style="line;strokeWidth=1;direction=south;html=1;gradientColor=default;" vertex="1" parent="1">
          <mxGeometry x="975" y="191" width="10" height="79" as="geometry" />
        </mxCell>
        <mxCell id="ADpffEBBeubzTnQbu4G_-10" value="管理员登录模块" style="rounded=0;fontSize=15;whiteSpace=wrap;html=1;" vertex="1" parent="1">
          <mxGeometry x="30" y="453" width="30" height="180" as="geometry" />
        </mxCell>
        <mxCell id="ADpffEBBeubzTnQbu4G_-11" value="用户管理与审核模块" style="rounded=0;fontSize=15;whiteSpace=wrap;html=1;" vertex="1" parent="1">
          <mxGeometry x="100" y="453" width="30" height="180" as="geometry" />
        </mxCell>
        <mxCell id="ADpffEBBeubzTnQbu4G_-12" value="作品管理模块" style="rounded=0;fontSize=15;whiteSpace=wrap;html=1;" vertex="1" parent="1">
          <mxGeometry x="172" y="453" width="30" height="180" as="geometry" />
        </mxCell>
        <mxCell id="ADpffEBBeubzTnQbu4G_-13" value="订单管理模块" style="rounded=0;fontSize=15;whiteSpace=wrap;html=1;" vertex="1" parent="1">
          <mxGeometry x="244" y="453" width="30" height="180" as="geometry" />
        </mxCell>
        <mxCell id="ADpffEBBeubzTnQbu4G_-14" value="表单管理模块" style="rounded=0;fontSize=15;whiteSpace=wrap;html=1;" vertex="1" parent="1">
          <mxGeometry x="313" y="453" width="31" height="180" as="geometry" />
        </mxCell>
        <mxCell id="ADpffEBBeubzTnQbu4G_-15" value="投票与评论管理模块" style="rounded=0;fontSize=15;whiteSpace=wrap;html=1;" vertex="1" parent="1">
          <mxGeometry x="379.5" y="453" width="31" height="180" as="geometry" />
        </mxCell>
        <mxCell id="ADpffEBBeubzTnQbu4G_-16" value="" style="line;strokeWidth=1;html=1;perimeter=backbonePerimeter;points=[];outlineConnect=0;" vertex="1" parent="1">
          <mxGeometry x="45" y="404" width="350" height="10" as="geometry" />
        </mxCell>
        <mxCell id="ADpffEBBeubzTnQbu4G_-17" value="" style="line;strokeWidth=1;direction=south;html=1;" vertex="1" parent="1">
          <mxGeometry x="40" y="409" width="10" height="44" as="geometry" />
        </mxCell>
        <mxCell id="ADpffEBBeubzTnQbu4G_-18" value="" style="line;strokeWidth=1;direction=south;html=1;" vertex="1" parent="1">
          <mxGeometry x="111" y="409" width="10" height="44" as="geometry" />
        </mxCell>
        <mxCell id="ADpffEBBeubzTnQbu4G_-19" value="" style="line;strokeWidth=1;direction=south;html=1;" vertex="1" parent="1">
          <mxGeometry x="182" y="409" width="10" height="44" as="geometry" />
        </mxCell>
        <mxCell id="ADpffEBBeubzTnQbu4G_-20" value="" style="line;strokeWidth=1;direction=south;html=1;" vertex="1" parent="1">
          <mxGeometry x="254" y="409" width="10" height="44" as="geometry" />
        </mxCell>
        <mxCell id="ADpffEBBeubzTnQbu4G_-21" value="" style="line;strokeWidth=1;direction=south;html=1;" vertex="1" parent="1">
          <mxGeometry x="323.5" y="409" width="10" height="44" as="geometry" />
        </mxCell>
        <mxCell id="ADpffEBBeubzTnQbu4G_-22" value="" style="line;strokeWidth=1;direction=south;html=1;" vertex="1" parent="1">
          <mxGeometry x="390" y="409" width="10" height="44" as="geometry" />
        </mxCell>
        <mxCell id="ADpffEBBeubzTnQbu4G_-23" value="用户注册模块" style="rounded=0;fontSize=15;whiteSpace=wrap;html=1;" vertex="1" parent="1">
          <mxGeometry x="470" y="455" width="30" height="180" as="geometry" />
        </mxCell>
        <mxCell id="ADpffEBBeubzTnQbu4G_-24" value="用户个人信息模块" style="rounded=0;fontSize=15;whiteSpace=wrap;html=1;" vertex="1" parent="1">
          <mxGeometry x="612" y="455" width="30" height="180" as="geometry" />
        </mxCell>
        <mxCell id="ADpffEBBeubzTnQbu4G_-25" value="内容检索模块" style="rounded=0;fontSize=15;whiteSpace=wrap;html=1;" vertex="1" parent="1">
          <mxGeometry x="685" y="455" width="30" height="180" as="geometry" />
        </mxCell>
        <mxCell id="ADpffEBBeubzTnQbu4G_-26" value="用户通知与消息模块" style="rounded=0;fontSize=15;whiteSpace=wrap;html=1;" vertex="1" parent="1">
          <mxGeometry x="754" y="455" width="30" height="180" as="geometry" />
        </mxCell>
        <mxCell id="ADpffEBBeubzTnQbu4G_-27" value="作品购买模块" style="rounded=0;fontSize=15;whiteSpace=wrap;html=1;" vertex="1" parent="1">
          <mxGeometry x="819.5" y="455" width="31" height="180" as="geometry" />
        </mxCell>
        <mxCell id="ADpffEBBeubzTnQbu4G_-29" value="" style="line;strokeWidth=1;html=1;perimeter=backbonePerimeter;points=[];outlineConnect=0;" vertex="1" parent="1">
          <mxGeometry x="485" y="406" width="350" height="10" as="geometry" />
        </mxCell>
        <mxCell id="ADpffEBBeubzTnQbu4G_-30" value="" style="line;strokeWidth=1;direction=south;html=1;" vertex="1" parent="1">
          <mxGeometry x="480" y="411" width="10" height="44" as="geometry" />
        </mxCell>
        <mxCell id="ADpffEBBeubzTnQbu4G_-31" value="" style="line;strokeWidth=1;direction=south;html=1;" vertex="1" parent="1">
          <mxGeometry x="551" y="411" width="10" height="44" as="geometry" />
        </mxCell>
        <mxCell id="ADpffEBBeubzTnQbu4G_-32" value="" style="line;strokeWidth=1;direction=south;html=1;" vertex="1" parent="1">
          <mxGeometry x="622" y="411" width="10" height="44" as="geometry" />
        </mxCell>
        <mxCell id="ADpffEBBeubzTnQbu4G_-33" value="" style="line;strokeWidth=1;direction=south;html=1;" vertex="1" parent="1">
          <mxGeometry x="694" y="411" width="10" height="44" as="geometry" />
        </mxCell>
        <mxCell id="ADpffEBBeubzTnQbu4G_-34" value="" style="line;strokeWidth=1;direction=south;html=1;" vertex="1" parent="1">
          <mxGeometry x="763.5" y="411" width="10" height="44" as="geometry" />
        </mxCell>
        <mxCell id="ADpffEBBeubzTnQbu4G_-35" value="" style="line;strokeWidth=1;direction=south;html=1;" vertex="1" parent="1">
          <mxGeometry x="830" y="411" width="10" height="44" as="geometry" />
        </mxCell>
        <mxCell id="ADpffEBBeubzTnQbu4G_-36" value="用户登录模块" style="rounded=0;fontSize=15;whiteSpace=wrap;html=1;" vertex="1" parent="1">
          <mxGeometry x="541" y="455" width="30" height="180" as="geometry" />
        </mxCell>
        <mxCell id="ADpffEBBeubzTnQbu4G_-37" value="" style="line;strokeWidth=1;direction=south;html=1;" vertex="1" parent="1">
          <mxGeometry x="215" y="330" width="10" height="79" as="geometry" />
        </mxCell>
        <mxCell id="ADpffEBBeubzTnQbu4G_-39" value="" style="line;strokeWidth=1;direction=south;html=1;" vertex="1" parent="1">
          <mxGeometry x="655" y="330" width="10" height="81" as="geometry" />
        </mxCell>
        <mxCell id="ADpffEBBeubzTnQbu4G_-41" value="" style="line;strokeWidth=1;direction=south;html=1;" vertex="1" parent="1">
          <mxGeometry x="975" y="330" width="10" height="79" as="geometry" />
        </mxCell>
        <mxCell id="ADpffEBBeubzTnQbu4G_-44" value="基础浏览模块" style="rounded=0;fontSize=15;whiteSpace=wrap;html=1;" vertex="1" parent="1">
          <mxGeometry x="964.5" y="409" width="31" height="180" as="geometry" />
        </mxCell>
        <mxCell id="ADpffEBBeubzTnQbu4G_-47" value="" style="line;strokeWidth=1;direction=south;html=1;" vertex="1" parent="1">
          <mxGeometry x="580" y="112" width="10" height="79" as="geometry" />
        </mxCell>
      </root>
    </mxGraphModel>
  </diagram>
</mxfile>
